<?xml version="1.0" encoding="utf-8"?>
<!-- Generator: Adobe Illustrator 21.0.2, SVG Export Plug-In . SVG Version: 6.00 Build 0)  -->
<svg version="1.1" id="Layer_1" xmlns="http://www.w3.org/2000/svg" xmlns:xlink="http://www.w3.org/1999/xlink" x="0px" y="0px"
	 viewBox="0 0 70.5 75.4" style="enable-background:new 0 0 70.5 75.4;" xml:space="preserve">
<g>
	<path d="M54.4,6.7h-0.7V4c0-2.2-1.8-4-4-4s-4,1.8-4,4v2.7h-21V4c0-2.2-1.8-4-4-4s-4,1.8-4,4v2.7H16c-8.8,0-16,7.2-16,16v36.7
		c0,8.8,7.2,16,16,16h38.5c8.8,0,16-7.2,16-16V22.7C70.4,13.9,63.3,6.7,54.4,6.7z M54.4,67.4H16c-4.4,0-8-3.6-8-8V33.7h54.5v25.7
		C62.4,63.8,58.8,67.4,54.4,67.4z"/>
	<path d="M52.1,51.7H18.3c-2.2,0-4,1.8-4,4s1.8,4,4,4H52c2.2,0,4-1.8,4-4S54.3,51.7,52.1,51.7z"/>
	<path d="M24,48.4h22.5c2.2,0,4-1.8,4-4s-1.8-4-4-4H24c-2.2,0-4,1.8-4,4S21.7,48.4,24,48.4z"/>
</g>
</svg>
